<svg xmlns="http://www.w3.org/2000/svg" xmlns:xlink="http://www.w3.org/1999/xlink" version="1.1" id="Layer_1" x="0px" y="0px" enable-background="new 0 0 1024 1024" xml:space="preserve" viewBox="257.96 261.92 502.37 511.36">
<path fill="#000000" opacity="1.000000" stroke="none" d=" M632.323547,510.713196   C649.420654,530.897095 657.382202,554.005676 657.266235,579.992737   C657.066223,624.815674 626.167786,662.260986 582.286682,671.116638   C560.207336,675.572510 537.887634,674.570251 515.601807,674.481506   C505.995300,674.443237 499.747589,669.189636 495.743561,660.922729   C490.568085,650.237244 487.089569,638.916077 483.856354,627.542542   C477.711487,605.926514 471.780731,584.249573 465.769196,562.595703   C465.465210,561.500671 465.237823,560.384399 465.016388,559.452942   C465.661011,558.567078 466.374847,558.589478 466.965149,558.857605   C477.451721,563.619751 487.476044,569.200195 497.047974,575.622131   C502.864777,579.524658 505.224030,585.389709 507.198975,591.708801   C513.704102,612.522949 519.340332,633.614807 527.012756,654.057556   C532.058289,667.501221 534.087341,669.167786 548.147705,668.684753   C578.807312,667.631226 600.156250,651.905884 612.372681,624.644104   C628.860901,587.849609 626.367004,550.683472 608.932495,515.025024   C597.539856,491.723969 576.564514,479.938660 551.484436,475.317505   C529.067200,471.187012 507.066772,473.387115 485.404358,480.065796   C484.490814,480.347443 483.524323,480.457397 482.321014,480.700073   C485.276154,476.250916 503.368500,470.970093 517.597046,469.756104   C561.956909,465.971191 600.434998,478.566559 632.323547,510.713196  z"/>
<path fill="#000000" opacity="1.000000" stroke="none" d=" M535.745605,607.154297   C509.006195,573.615540 475.603851,551.944153 433.287140,543.847534   C409.605072,539.316284 386.143829,533.046509 365.376648,519.849304   C352.276398,511.524323 341.410187,500.986603 336.903992,485.662201   C329.418854,460.207275 337.499084,439.111237 356.534058,421.756744   C382.566437,398.022552 422.356445,400.910492 446.104492,420.659943   C452.706848,426.150665 456.835327,433.285980 459.416687,441.393585   C470.674438,476.752289 481.940460,512.108398 493.202789,547.465637   C493.404785,548.099731 493.629333,548.728760 493.790039,549.373413   C496.568359,560.520264 502.216278,569.319580 511.554016,576.666992   C521.846069,584.765320 530.409058,594.979126 538.004089,605.805298   C538.923462,607.115784 540.111938,608.345032 540.207886,610.489075   C537.795837,610.508850 537.159851,608.549744 535.745605,607.154297  M432.952179,450.399170   C430.925720,442.316925 428.441345,434.405090 425.285736,426.664734   C420.362183,414.587891 410.865356,409.776611 398.624908,409.190460   C380.861572,408.339752 366.631775,415.678741 355.084686,428.700745   C336.482574,449.679016 334.864349,477.646271 351.135132,498.810394   C359.363800,509.513824 370.641876,516.236023 382.612854,522.020447   C386.905548,524.094666 388.980652,523.341309 390.796478,518.805481   C400.578888,494.369873 411.714447,470.527405 423.020874,446.767548   C423.755981,445.222748 423.972870,443.164642 426.449249,442.451782   C428.764740,447.540710 430.115173,452.317566 427.693359,458.017029   C418.643311,479.315216 409.936890,500.759521 401.118011,522.155762   C398.839294,527.684448 398.891876,528.026794 404.792328,529.606018   C415.236877,532.401489 425.764587,534.884949 436.223328,537.629150   C443.565125,539.555481 450.850281,541.697998 458.763123,543.912659   C450.143341,512.651001 441.668060,481.913422 432.952179,450.399170  z"/>
<path fill="#000000" opacity="1.000000" stroke="none" d=" M538.000000,268.131897   C519.002747,268.151825 500.505463,268.171600 482.008209,268.185730   C480.675476,268.186768 479.337921,268.210205 478.011108,268.110413   C476.084869,267.965515 474.158112,267.557922 474.354706,265.040009   C474.532501,262.762909 476.440948,262.777008 478.125000,262.732056   C486.284027,262.514160 494.444031,262.134644 502.603027,262.150665   C524.591797,262.193817 546.603943,261.298828 568.563477,262.795319   C601.252441,265.022949 628.850464,277.267456 644.781982,307.292267   C662.122559,339.972534 660.853027,373.271027 641.502930,404.839905   C621.209412,437.947968 589.495178,453.814880 552.306763,460.245117   C547.090393,461.147034 541.757324,461.377502 536.474243,461.876129   C536.300537,461.892548 536.082825,461.442291 535.625061,460.902069   C537.988342,459.033264 540.894287,459.252075 543.497314,458.702423   C563.274719,454.526184 581.344849,446.966888 595.784485,432.288818   C606.519226,421.376770 613.726440,408.302979 618.264832,393.799957   C626.686829,366.886169 627.142029,339.702850 619.619202,312.562103   C616.581299,301.601959 611.927002,291.242126 603.333984,283.192535   C592.254578,272.813843 578.599792,269.160492 563.991516,268.373230   C555.514587,267.916382 546.998474,268.187073 538.000000,268.131897  z"/>
<path fill="#000000" opacity="1.000000" stroke="none" d=" M355.199341,656.072632   C354.181030,658.220581 353.226471,659.985168 352.471252,661.831360   C350.314423,667.103882 351.664612,669.438477 357.355896,669.641235   C364.177185,669.884094 371.012238,669.718201 377.840302,669.806763   C379.753815,669.831604 382.372559,669.384705 382.476929,672.248657   C382.598846,675.592651 379.684784,674.978760 377.684692,674.981750   C353.533569,675.017578 329.382324,674.982910 305.231110,674.956299   C304.233795,674.955200 303.230042,674.907715 302.240936,674.786804   C300.852295,674.617004 299.506256,674.189819 299.423309,672.513550   C299.325073,670.529724 300.782166,669.968079 302.388336,669.925049   C306.549927,669.813416 310.761292,669.389648 314.868561,669.846802   C325.220398,670.998962 330.984161,665.699219 334.899872,656.916199   C346.019958,631.973511 355.988281,606.551086 366.585999,581.391479   C371.884613,568.812256 377.310181,556.285767 382.518799,543.669617   C384.085144,539.875732 385.899719,538.516724 390.411011,539.480225   C403.090240,542.188293 416.245697,541.754211 428.921387,544.766052   C438.622375,547.070984 448.589142,548.465149 457.616302,553.073425   C459.463989,554.016663 461.862030,554.717041 460.847687,557.784790   C458.683868,558.920593 456.992401,557.368042 455.252533,556.688843   C438.685364,550.221008 421.457367,546.879456 403.802887,545.225891   C398.320038,544.712341 395.836029,546.752808 394.002991,551.837402   C382.882568,582.683838 371.459625,613.421387 360.091705,644.178223   C358.650146,648.078552 356.939911,651.879578 355.199341,656.072632  z"/>
<path fill="#000000" opacity="1.000000" stroke="none" d=" M509.862885,355.767090   C494.933533,388.490417 482.877563,421.970642 470.531281,455.059204   C467.792450,454.816315 467.789459,453.213470 467.398499,452.058350   C464.568512,443.696991 462.017792,435.222870 457.466400,427.567139   C456.361755,425.709106 456.813538,424.066803 457.753601,422.397003   C479.235474,384.239105 498.117676,344.575470 523.212708,308.511658   C533.128235,294.262146 544.739929,281.746704 561.733643,275.614838   C566.590820,273.862213 569.156677,273.131897 572.710693,273.307190   C573.265808,274.996246 571.838989,275.345428 570.869568,275.633453   C553.327026,280.845032 542.716492,294.021454 533.432373,308.522522   C523.970459,323.301453 516.971985,339.362183 509.862885,355.767090  z"/>
<path fill="#000000" opacity="1.000000" stroke="none" d=" M501.738098,448.999817   C501.780243,430.680328 502.119080,412.854980 501.764954,395.043396   C501.523132,382.880981 506.097382,372.343994 511.137054,361.817993   C511.619659,360.810028 512.190796,359.671997 513.713257,359.713684   C515.398132,361.230133 515.101685,363.327667 515.106628,365.264923   C515.190125,397.906097 515.247314,430.547394 515.261230,463.188660   C515.262024,465.072418 515.943359,467.671143 513.376160,468.311768   C509.891022,469.181396 506.243927,470.270752 502.661316,469.132751   C501.324280,468.708069 501.756348,466.782318 501.748199,465.487396   C501.714722,460.158386 501.737427,454.829010 501.738098,448.999817  z"/>
<path fill="#000000" opacity="1.000000" stroke="none" d=" M512.567505,476.953796   C515.239868,478.164917 515.088989,480.307617 515.095276,482.260742   C515.191895,512.257202 515.250610,542.253906 515.296448,572.250488   C515.297913,573.191223 515.547607,574.288208 514.073975,575.144226   C510.908478,572.858521 507.574402,570.496948 504.295563,568.061035   C502.978668,567.082703 502.810120,565.568848 502.696564,564.027771   C500.660675,536.399780 502.335754,508.729828 501.719330,481.086853   C501.656097,478.251190 503.067810,477.193817 505.626068,477.099152   C507.789917,477.019043 509.954071,476.947693 512.567505,476.953796  z"/>
<path fill="#000000" opacity="1.000000" stroke="none" d=" M700.601807,419.353455   C696.347534,445.423645 682.479858,464.899689 661.978149,480.041199   C651.586243,487.716064 640.157104,493.494354 627.754639,497.226837   C625.650879,497.859955 623.162903,499.124146 621.982422,495.704620   C623.007202,493.355042 625.361145,493.133362 627.283752,492.338226   C649.418640,483.183838 668.556458,470.342529 682.367798,450.118896   C699.278992,425.356323 701.089905,387.820831 685.760437,363.915588   C681.493225,357.261169 676.442688,351.330872 669.347229,347.447784   C668.281128,346.864319 666.736694,346.574097 666.822021,344.282837   C670.712952,344.673920 673.728516,346.695984 676.425842,349.029816   C691.364197,361.954926 699.744507,378.237549 701.318359,398.008575   C701.876526,405.020172 701.624878,411.972778 700.601807,419.353455  z"/>
<path fill="#000000" opacity="1.000000" stroke="none" d=" M518.058472,751.346497   C523.676575,762.445740 517.918823,772.085754 505.911041,772.284790   C501.428162,772.359070 496.941467,772.219666 492.459259,772.312012   C489.827667,772.366211 488.518127,771.571167 488.551178,768.631165   C488.687469,756.508545 488.711975,744.383545 488.637970,732.260315   C488.619354,729.213989 490.012482,728.054199 492.807831,728.035461   C495.797058,728.015442 498.787384,727.940369 501.775360,727.993591   C514.409058,728.218445 519.279724,735.672363 513.801208,747.996582   C514.938782,748.855957 516.388916,749.951355 518.058472,751.346497  M502.444092,751.004089   C499.642426,751.828857 495.243988,748.948303 494.339172,754.168762   C492.297241,765.949707 493.920013,767.688904 505.730286,766.894897   C506.726959,766.827942 507.752502,766.845581 508.710358,766.606445   C512.612793,765.631897 514.665039,763.033020 514.682434,759.054932   C514.699768,755.099365 512.748718,752.350464 508.834991,751.411560   C507.080597,750.990784 505.194366,751.119507 502.444092,751.004089  M494.398163,742.998230   C496.554382,748.116150 500.923981,745.192871 504.266205,745.491577   C507.015961,745.737305 509.336395,744.064819 510.341522,741.227783   C510.548615,740.643188 510.472382,739.918701 510.388214,739.276794   C509.768799,734.553040 506.455658,733.002380 499.198914,733.030823   C494.054993,733.050964 494.222290,736.171875 494.357452,739.651550   C494.389618,740.479553 494.366333,741.309692 494.398163,742.998230  z"/>
<path fill="#000000" opacity="1.000000" stroke="none" d=" M395.352722,738.842224   C396.958832,747.341187 392.158752,751.553162 385.458832,754.650757   C388.162659,761.221680 394.445496,765.075134 397.080261,771.487671   C393.360352,773.118164 391.046539,772.222290 389.011597,769.292603   C384.932526,763.420044 380.078827,758.242065 373.984680,753.371521   C372.316193,758.514587 372.554321,763.114441 372.352417,767.670776   C372.270874,769.510254 372.962585,772.113647 369.855927,772.165710   C366.586060,772.220642 366.891663,769.585388 366.884827,767.476685   C366.847717,755.981506 366.936127,744.485657 366.853394,732.991028   C366.829407,729.654297 368.152374,728.028442 371.526459,728.037476   C375.688385,728.048584 379.856628,727.793030 383.982758,728.605347   C389.648041,729.720642 393.824707,732.531555 395.352722,738.842224  M373.096710,742.426880   C373.665558,744.818726 371.693573,748.573730 375.079987,749.352234   C379.044434,750.263672 383.514496,749.856750 386.968872,747.291016   C391.478577,743.941589 390.421051,737.045715 385.318298,734.577271   C377.429321,730.760986 373.033081,733.245422 373.096710,742.426880  z"/>
<path fill="#000000" opacity="1.000000" stroke="none" d=" M314.944153,737.123230   C314.987061,734.978821 314.974060,733.310059 315.085510,731.649597   C315.208649,729.814941 315.900391,728.399231 318.061249,728.377747   C320.452087,728.354004 321.248444,729.778748 321.243073,731.912048   C321.228394,737.744690 321.206085,743.577393 321.193634,749.410034   C321.188293,751.909790 321.161530,754.410339 321.211273,756.909180   C321.344055,763.579346 324.873291,767.395020 331.098694,767.651978   C337.757263,767.926758 342.313416,764.016724 342.455841,757.160339   C342.607819,749.844299 342.121460,742.515930 341.966400,735.191772   C341.934875,733.701233 342.032898,732.189819 342.258789,730.716736   C342.541077,728.876038 343.947845,728.359070 345.585571,728.423523   C347.170349,728.485901 348.093109,729.461243 348.080872,730.989685   C347.998352,741.304199 349.224548,751.700867 347.499115,761.907898   C346.282776,769.103455 339.223389,773.337280 330.722900,773.218567   C323.535278,773.118103 317.370911,768.477051 315.759735,761.517151   C313.933899,753.629639 315.345612,745.572693 314.944153,737.123230  z"/>
<path fill="#000000" opacity="1.000000" stroke="none" d=" M619.409424,771.161316   C616.002869,773.424866 613.592712,772.088867 612.828369,768.832092   C610.815918,760.256958 605.320923,758.798523 597.314270,758.991699   C590.968750,759.144897 587.403015,760.899292 585.523865,766.869385   C584.383667,770.491394 582.527161,773.810120 576.922241,771.300964   C583.988647,756.723633 590.996033,742.268188 598.819580,726.128967   C606.095947,741.854065 612.791504,756.324036 619.409424,771.161316  M597.701782,753.763489   C599.864685,753.435974 602.306091,754.441162 604.366272,752.470032   C602.595154,748.851196 601.805054,744.918030 598.833862,741.395996   C595.913025,745.074524 594.393433,748.955322 592.947205,752.779846   C594.233948,754.180237 595.640320,753.615601 597.701782,753.763489  z"/>
<path fill="#000000" opacity="1.000000" stroke="none" d=" M560.655273,750.274231   C555.526184,750.342834 550.853333,750.515320 546.196533,750.313843   C542.451355,750.151855 541.246948,751.709961 541.299377,755.329529   C541.495483,768.881470 539.763977,766.639709 552.541992,766.871338   C555.372742,766.922668 558.206482,766.916748 561.032776,767.058594   C562.530640,767.133789 563.554382,767.981812 563.543274,769.601746   C563.532288,771.197266 562.579407,772.119263 561.037048,772.127930   C553.540894,772.169922 546.044006,772.179688 538.548218,772.107727   C536.467407,772.087769 535.731323,770.643616 535.729675,768.727661   C535.718811,756.395752 535.726013,744.063721 535.676208,731.731934   C535.665955,729.202942 536.870422,728.048584 539.298950,728.057068   C546.130066,728.080933 552.962036,728.078613 559.791443,728.206238   C561.435913,728.237000 563.378052,728.515015 563.406006,730.782898   C563.439575,733.504333 561.245728,733.316772 559.442139,733.344116   C555.443420,733.404846 551.415283,733.665771 547.450684,733.294128   C542.502014,732.830383 540.746887,734.821960 541.416687,739.548218   C541.646973,741.173340 541.315735,742.892273 542.693970,744.898499   C547.972717,744.898499 553.605652,744.880676 559.238342,744.910217   C560.754639,744.918213 562.415527,745.001831 562.949219,746.773438   C563.429199,748.366638 563.039001,749.767090 560.655273,750.274231  z"/>
<path fill="#000000" opacity="1.000000" stroke="none" d=" M300.207214,768.908203   C300.639740,770.368713 301.277710,771.626892 299.554474,772.091980   C297.812469,772.562256 296.146606,772.287231 295.203369,770.587952   C294.075867,768.556763 293.143341,766.416870 292.138885,764.318054   C291.636780,763.268860 291.308899,762.102966 290.649445,761.168213   C288.190216,757.681824 271.387726,758.408508 269.146820,762.116455   C267.859161,764.247070 266.722198,766.482971 265.688782,768.749634   C264.282806,771.833557 262.173035,772.963562 257.957520,771.345154   C265.056549,756.856384 272.072388,742.537415 279.088226,728.218445   C279.647278,728.155945 280.206360,728.093445 280.765411,728.030945   C287.202026,741.537048 293.638611,755.043213 300.207214,768.908203  M282.090973,743.764465   C281.516724,742.873474 281.607910,741.410095 279.672363,741.327576   C277.693390,745.051331 275.655945,748.884949 273.373688,753.179321   C277.859650,753.936340 281.606018,754.337891 285.749023,752.812805   C284.546875,749.804565 283.463470,747.093445 282.090973,743.764465  z"/>
<path fill="#000000" opacity="1.000000" stroke="none" d=" M632.283569,758.323853   C632.130737,749.727295 631.999695,741.569519 631.996460,733.411743   C631.995605,731.288574 631.914856,728.731445 635.137451,728.802124   C638.378723,728.873169 638.058044,731.456360 638.077759,733.562195   C638.149475,741.223755 638.047546,748.887390 638.171631,756.547668   C638.280823,763.287476 641.474487,767.103271 647.184326,767.681274   C653.467896,768.317444 657.466553,765.439453 658.933655,758.788452   C660.565552,751.390625 659.328064,743.848694 659.662170,736.379272   C659.729126,734.882812 659.701538,733.381653 659.698425,731.882629   C659.694519,730.030334 660.156067,728.542847 662.380310,728.460510   C664.647156,728.376526 665.881897,729.555908 665.833191,731.760498   C665.623718,741.243835 665.880798,750.782898 664.898682,760.190063   C664.057495,768.247253 656.082764,773.589905 647.366394,773.268433   C639.231018,772.968384 633.671692,767.597046 632.283569,758.323853  z"/>
<path fill="#000000" opacity="1.000000" stroke="none" d=" M430.610382,729.043213   C432.483337,728.239197 432.878662,729.544250 433.353119,730.539978   C439.579834,743.608826 445.782593,756.689209 451.965820,769.778687   C452.162323,770.194641 452.085938,770.739502 452.162323,771.467712   C448.355164,773.438782 445.892487,771.623535 445.048676,768.240906   C443.027954,760.140137 437.808197,758.857178 430.265106,758.981506   C423.800140,759.088013 420.052643,760.910767 417.956512,767.000427   C416.852234,770.208618 415.234985,773.847046 409.572632,771.109253   C416.532928,757.102295 423.446655,743.189026 430.610382,729.043213  M429.841949,753.850586   C432.235840,753.689880 434.719391,754.151794 437.471375,752.949951   C435.503815,748.858521 433.683136,745.072571 431.631470,740.806274   C428.492828,744.828003 426.937347,748.921326 425.168060,752.799194   C426.373871,754.309631 427.802429,753.657898 429.841949,753.850586  z"/>
<path fill="#000000" opacity="1.000000" stroke="none" d=" M751.181030,733.182861   C753.083923,729.207520 755.282227,726.671143 760.331299,729.348511   C756.995850,734.895447 754.133423,740.499634 750.475830,745.525208   C745.872559,751.850281 743.126099,758.450378 744.322449,766.365845   C744.420532,767.014832 744.341980,767.694519 744.310730,768.358215   C744.222107,770.238159 744.177490,772.244019 741.513306,772.118286   C739.319580,772.014832 738.636230,770.276306 738.928284,768.582581   C741.237488,755.191406 732.672241,745.745117 726.998169,735.251587   C725.980713,733.370117 724.415649,731.772949 723.997559,729.277039   C727.409180,727.235718 729.697266,728.322571 731.557251,731.626709   C734.713196,737.233032 738.015381,742.757019 741.840698,749.318359   C745.257751,743.412537 748.124817,738.457214 751.181030,733.182861  z"/>
<path fill="#000000" opacity="1.000000" stroke="none" d=" M687.189331,728.008423   C693.812988,728.027588 699.963135,727.983398 706.109985,728.105774   C708.031982,728.144043 710.524719,728.073181 710.470520,730.953552   C710.412476,734.042847 707.806885,733.304321 705.958923,733.360413   C698.980225,733.572021 699.007080,733.538147 699.039185,740.616028   C699.079102,749.423950 699.110046,758.232422 699.047729,767.040039   C699.031860,769.278076 699.411560,772.080505 695.913757,772.180298   C692.241272,772.284973 692.816467,769.423462 692.801453,767.203003   C692.739563,758.062744 692.523560,748.913513 692.850647,739.784973   C693.024292,734.939026 691.838989,732.597290 686.540527,733.180237   C684.557983,733.398376 681.093201,734.401489 681.018127,730.885681   C680.937927,727.134338 684.486572,728.399658 687.189331,728.008423  z"/>
<path fill="#000000" opacity="1.000000" stroke="none" d=" M553.114990,490.807190   C564.880005,493.430664 576.473145,494.224060 587.983887,495.626160   C590.232910,495.900116 592.727966,495.865326 593.734375,498.616394   C587.603455,502.485931 542.841797,493.489960 535.219727,485.881256   C541.048340,487.492828 546.877014,489.104431 553.114990,490.807190  z"/>
<path fill="#000000" opacity="1.000000" stroke="none" d=" M436.820862,500.721924   C438.096436,498.511139 438.145050,495.892548 440.606323,494.841583   C443.162811,499.605682 442.069336,501.955536 436.110046,504.632019   C435.015961,503.231720 436.261566,502.197205 436.820862,500.721924  z"/>
</svg>